<svg width="512" height="512" viewBox="0 0 512 512" fill="none" xmlns="http://www.w3.org/2000/svg">
<path d="M387.2 195.088L380.8 388.8C380.255 405.39 373.266 421.115 361.317 432.637C349.368 444.159 333.399 450.571 316.8 450.512H195.2C178.612 450.571 162.652 444.168 150.705 432.66C138.757 421.152 131.761 405.443 131.2 388.864L124.8 195.088C124.66 190.845 126.211 186.719 129.113 183.62C132.014 180.52 136.028 178.7 140.272 178.56C144.515 178.42 148.641 179.971 151.74 182.873C154.84 185.775 156.66 189.789 156.8 194.032L163.2 387.792C163.519 396.064 167.03 403.89 172.997 409.627C178.964 415.364 186.922 418.566 195.2 418.56H316.8C325.088 418.566 333.056 415.355 339.024 409.604C344.993 403.853 348.497 396.011 348.8 387.728L355.2 194.032C355.34 189.789 357.16 185.775 360.26 182.873C363.359 179.971 367.484 178.42 371.728 178.56C375.971 178.7 379.985 180.52 382.887 183.62C385.789 186.719 387.34 190.845 387.2 195.088ZM408.368 130.624C408.368 134.867 406.682 138.937 403.682 141.938C400.681 144.938 396.611 146.624 392.368 146.624H119.648C115.404 146.624 111.335 144.938 108.334 141.938C105.334 138.937 103.648 134.867 103.648 130.624C103.648 126.381 105.334 122.311 108.334 119.31C111.335 116.31 115.404 114.624 119.648 114.624H169.248C174.318 114.638 179.211 112.765 182.976 109.37C186.74 105.974 189.107 101.3 189.616 96.256C190.797 84.4238 196.34 73.4549 205.166 65.4865C213.992 57.5182 225.469 53.1211 237.36 53.152H274.64C286.531 53.1211 298.007 57.5182 306.834 65.4865C315.66 73.4549 321.203 84.4238 322.384 96.256C322.892 101.3 325.259 105.974 329.024 109.37C332.789 112.765 337.682 114.638 342.752 114.624H392.352C396.595 114.624 400.665 116.31 403.666 119.31C406.666 122.311 408.352 126.381 408.352 130.624H408.368ZM217.392 114.624H294.64C292.537 109.82 291.162 104.729 290.56 99.52C290.164 95.5761 288.317 91.9198 285.379 89.2594C282.441 86.599 278.62 85.1239 274.656 85.12H237.376C233.412 85.1239 229.591 86.599 226.653 89.2594C223.714 91.9198 221.868 95.5761 221.472 99.52C220.864 104.73 219.5 109.821 217.392 114.624ZM233.504 357.04V220.8C233.504 216.557 231.818 212.487 228.818 209.486C225.817 206.486 221.747 204.8 217.504 204.8C213.26 204.8 209.191 206.486 206.19 209.486C203.19 212.487 201.504 216.557 201.504 220.8V357.104C201.504 361.347 203.19 365.417 206.19 368.418C209.191 371.418 213.26 373.104 217.504 373.104C221.747 373.104 225.817 371.418 228.818 368.418C231.818 365.417 233.504 361.347 233.504 357.104V357.04ZM310.528 357.04V220.8C310.528 216.557 308.842 212.487 305.842 209.486C302.841 206.486 298.771 204.8 294.528 204.8C290.284 204.8 286.215 206.486 283.214 209.486C280.214 212.487 278.528 216.557 278.528 220.8V357.104C278.528 361.347 280.214 365.417 283.214 368.418C286.215 371.418 290.284 373.104 294.528 373.104C298.771 373.104 302.841 371.418 305.842 368.418C308.842 365.417 310.528 361.347 310.528 357.104V357.04Z" fill="black"/>
</svg>
