<svg width="512" height="512" viewBox="0 0 512 512" fill="none" xmlns="http://www.w3.org/2000/svg">
<path d="M393.143 36.5714C415.81 36.5714 435.191 44.619 451.286 60.7143C467.381 76.8095 475.429 96.1905 475.429 118.857V393.143C475.429 415.81 467.381 435.19 451.286 451.286C435.191 467.381 415.81 475.429 393.143 475.429H339.429V305.429H396.286L404.857 239.143H339.429V196.857C339.429 186.19 341.667 178.19 346.143 172.857C350.619 167.524 359.333 164.857 372.286 164.857L407.143 164.571V105.429C395.143 103.714 378.191 102.857 356.286 102.857C330.381 102.857 309.667 110.476 294.143 125.714C278.619 140.952 270.857 162.476 270.857 190.286V239.143H213.714V305.429H270.857V475.429H118.857C96.1906 475.429 76.8096 467.381 60.7144 451.286C44.6192 435.19 36.5715 415.81 36.5715 393.143V118.857C36.5715 96.1905 44.6192 76.8095 60.7144 60.7143C76.8096 44.619 96.1906 36.5714 118.857 36.5714H393.143Z" fill="white"/>
</svg>
