<svg width="512" height="512" viewBox="0 0 512 512" fill="none" xmlns="http://www.w3.org/2000/svg">
<path d="M369.92 116.48C364.857 116.48 359.907 117.981 355.697 120.794C351.488 123.607 348.206 127.605 346.269 132.283C344.331 136.961 343.824 142.108 344.812 147.074C345.8 152.04 348.238 156.602 351.818 160.182C355.398 163.762 359.96 166.2 364.926 167.188C369.892 168.176 375.039 167.669 379.717 165.731C384.395 163.794 388.393 160.512 391.206 156.303C394.019 152.093 395.52 147.143 395.52 142.08C395.52 135.29 392.823 128.779 388.022 123.978C383.221 119.177 376.71 116.48 369.92 116.48ZM468.053 168.107C467.639 150.406 464.323 132.894 458.24 116.267C452.816 102.04 444.373 89.1579 433.493 78.5066C422.93 67.5717 410.017 59.1824 395.733 53.9733C379.15 47.7047 361.618 44.3138 343.893 43.9466C321.28 42.6666 314.027 42.6666 256 42.6666C197.973 42.6666 190.72 42.6666 168.107 43.9466C150.382 44.3138 132.85 47.7047 116.267 53.9733C102.009 59.2351 89.108 67.6172 78.5067 78.5066C67.5718 89.0704 59.1825 101.983 53.9734 116.267C47.7048 132.85 44.3139 150.382 43.9467 168.107C42.6667 190.72 42.6667 197.973 42.6667 256C42.6667 314.027 42.6667 321.28 43.9467 343.893C44.3139 361.618 47.7048 379.15 53.9734 395.733C59.1825 410.017 67.5718 422.929 78.5067 433.493C89.108 444.383 102.009 452.765 116.267 458.027C132.85 464.295 150.382 467.686 168.107 468.053C190.72 469.333 197.973 469.333 256 469.333C314.027 469.333 321.28 469.333 343.893 468.053C361.618 467.686 379.15 464.295 395.733 458.027C410.017 452.817 422.93 444.428 433.493 433.493C444.421 422.882 452.871 409.988 458.24 395.733C464.323 379.106 467.639 361.594 468.053 343.893C468.053 321.28 469.333 314.027 469.333 256C469.333 197.973 469.333 190.72 468.053 168.107ZM429.653 341.333C429.498 354.875 427.045 368.292 422.4 381.013C418.994 390.297 413.523 398.686 406.4 405.547C399.481 412.597 391.109 418.057 381.867 421.547C369.146 426.192 355.729 428.645 342.187 428.8C320.853 429.867 312.96 430.08 256.853 430.08C200.747 430.08 192.853 430.08 171.52 428.8C157.459 429.063 143.458 426.898 130.133 422.4C121.297 418.732 113.309 413.286 106.667 406.4C99.586 399.547 94.1834 391.151 90.8801 381.867C85.6717 368.963 82.7829 355.241 82.3467 341.333C82.3467 320 81.0667 312.107 81.0667 256C81.0667 199.893 81.0667 192 82.3467 170.667C82.4424 156.822 84.9697 143.103 89.8134 130.133C93.5691 121.129 99.3337 113.102 106.667 106.667C113.148 99.3315 121.158 93.506 130.133 89.6C143.137 84.9076 156.843 82.455 170.667 82.3466C192 82.3466 199.893 81.0666 256 81.0666C312.107 81.0666 320 81.0666 341.333 82.3466C354.875 82.5019 368.292 84.9545 381.013 89.6C390.708 93.1979 399.409 99.0474 406.4 106.667C413.391 113.22 418.854 121.232 422.4 130.133C427.141 143.124 429.596 156.838 429.653 170.667C430.72 192 430.933 199.893 430.933 256C430.933 312.107 430.72 320 429.653 341.333ZM256 146.56C234.364 146.602 213.226 153.057 195.257 165.108C177.287 177.159 163.293 194.265 155.043 214.267C146.792 234.268 144.656 256.266 148.902 277.481C153.149 298.696 163.589 318.177 178.903 333.461C194.217 348.745 213.718 359.147 234.941 363.352C256.165 367.558 278.158 365.378 298.143 357.089C318.129 348.799 335.208 334.772 347.224 316.779C359.24 298.787 365.653 277.636 365.653 256C365.682 241.602 362.863 227.341 357.36 214.036C351.857 200.732 343.777 188.647 333.587 178.476C323.396 168.305 311.295 160.249 297.98 154.772C284.665 149.294 270.398 146.504 256 146.56ZM256 327.04C241.95 327.04 228.215 322.874 216.532 315.068C204.85 307.262 195.745 296.167 190.368 283.186C184.991 270.205 183.584 255.921 186.325 242.141C189.066 228.36 195.832 215.702 205.767 205.767C215.702 195.832 228.36 189.066 242.141 186.325C255.921 183.584 270.205 184.991 283.186 190.368C296.167 195.744 307.262 204.85 315.068 216.532C322.874 228.215 327.04 241.95 327.04 256C327.04 265.329 325.203 274.567 321.632 283.186C318.062 291.805 312.83 299.636 306.233 306.233C299.636 312.829 291.805 318.062 283.186 321.632C274.567 325.202 265.329 327.04 256 327.04Z" fill="white"/>
</svg>
