<svg width="512" height="512" viewBox="0 0 512 512" fill="none" xmlns="http://www.w3.org/2000/svg">
<path d="M435.208 324.917C437.698 318.427 439.792 311.792 441.26 305.75C445.312 291.677 447.448 277.76 447.646 264.344C447.865 262.51 447.844 260.656 447.583 258.833C447.562 258.521 447.542 258.25 447.521 258.042C447.344 255.073 446.677 252.146 445.604 249.75C440.812 238.99 428.187 234.188 417.427 238.969C408.531 242.948 403.687 252.26 405 261.437C405 261.469 405 261.489 405 261.521C404.989 261.75 404.989 261.979 404.989 262.208C405.01 272.292 403.417 282.979 400.052 294.74C398.791 299.812 397.239 304.781 395.385 309.615C382.354 343.479 357.885 371.115 326.198 387.584C320.739 390.531 314.625 393.229 308.698 395.604C303.531 397.657 298.104 399.334 291.917 400.729C262.229 408.354 231.292 406.49 202.385 395.375C191.823 391.323 182.01 386.135 172.396 379.406C168.573 376.99 165.114 374.406 161.781 371.562C160.864 370.708 160.031 370.052 159.396 369.583C159.219 369.437 159.042 369.292 158.864 369.146C152.917 364.386 148.01 359.489 142.812 352.948C140.552 350.458 138.385 347.708 136.219 344.937C135.958 344.552 135.698 344.198 135.458 343.885C135.362 343.725 135.26 343.577 135.161 343.428C135.226 343.539 135.299 343.65 135.365 343.76C135.354 343.75 135.344 343.739 135.333 343.719C135.277 343.617 135.22 343.525 135.161 343.428C135.134 343.388 135.099 343.331 135.073 343.292C134.687 342.656 134.26 342.031 133.823 341.437C129.792 335.458 122.636 331.281 115.583 332.052C106.958 332.281 99.3229 337.667 96.2291 345.719L70.3021 413.146C66.0834 424.145 71.5625 436.489 82.5626 440.719C93.5418 444.927 105.896 439.469 110.135 428.458L123.146 394.604C125.771 397.083 128.552 399.5 131.49 401.885C132.26 402.583 132.958 403.125 133.521 403.531C138.719 408.01 143.958 411.906 148.708 414.885C160.354 423.062 173.26 429.896 187.073 435.198C209.323 443.76 232.541 448.052 255.646 448.052C271.208 448.052 286.739 446.104 301.885 442.208C309.614 440.479 317.219 438.135 324.521 435.229C332 432.229 339.615 428.823 346.167 425.292C386.813 404.167 418.438 368.521 435.208 324.917Z" fill="black"/>
<path d="M170.656 323.542C171.104 323.917 171.562 324.271 172.031 324.604C187.76 337.531 205.5 348.021 224.781 355.802L236.885 360.667C243.041 363.146 249.51 364.385 255.979 364.385C262.427 364.385 268.864 363.156 274.979 360.688L287.177 355.792C301.667 349.948 315.323 342.552 327.823 333.781C331.885 330.917 335.864 327.865 339.739 324.708C340.27 324.344 340.771 323.958 341.271 323.542C349.989 316.208 356.073 306.146 358.375 295.406C361.219 282.729 362.667 269.469 362.667 256C362.667 242.427 361.219 229.156 358.417 216.781C356.198 206.448 350.677 196.958 342.76 189.844C342.271 189.344 341.76 188.864 341.219 188.417C325 174.865 306.718 163.979 286.864 156.073L275.041 151.375C262.906 146.406 249 146.427 237.135 151.271L224.896 156.094C205.114 164.021 186.885 174.896 170.562 188.542C164.884 193.322 160.459 199.361 157.335 205.975C157.243 206.146 157.076 206.242 156.989 206.417C156.9 206.595 156.923 206.793 156.839 206.973C155.445 210.098 154.26 213.307 153.542 216.646C147.792 242.562 147.792 269.812 153.511 295.25C155.875 306.177 161.969 316.219 170.656 323.542ZM320 256C320 266.333 318.906 276.448 316.708 286.26C316.385 287.729 315.594 289.136 314.437 290.302C314.26 290.438 314.083 290.583 313.917 290.719C310.437 293.573 306.875 296.344 303.271 298.896C295.289 304.486 286.512 309.195 277.333 313.349V268.532L319.423 245.16C319.694 248.746 320 252.323 320 256ZM240.646 195.75L253.01 190.875C254.864 190.104 257.041 190.094 259.104 190.948L271.094 195.719C280.113 199.306 288.548 203.911 296.659 209.009L255.437 231.896L212.938 210.611C221.706 204.867 230.84 199.68 240.646 195.75ZM234.667 269.197V313.23C221.463 307.26 209.078 299.962 198.167 290.844C197.948 290.667 197.729 290.49 197.5 290.313C196.333 289.135 195.531 287.687 195.177 286.062C192.397 273.708 191.586 260.845 192.333 248.008L234.667 269.197Z" fill="black"/>
<path d="M76.7917 187.073C68.6458 208.281 64.3332 230.448 64 252.958C63.8229 264.729 73.2397 274.427 85.0208 274.604C85.1249 274.604 85.2292 274.604 85.3438 274.604C96.9688 274.604 106.49 265.26 106.667 253.583C106.927 236.115 110.271 218.886 116.615 202.386C132.271 161.708 164.604 130.125 205.677 115.615C238.833 103.24 275.76 103.584 309.615 116.615C335.594 126.615 358.01 143.563 374.437 165.646C374.844 166.198 376.385 168.25 376.854 168.761L379.073 171.792C383.812 177.834 391.385 180.959 399.021 179.719C406.614 178.584 413.01 173.448 415.771 166.282L441.698 98.8546C445.927 87.8547 440.437 75.5108 429.437 71.2817C418.468 67.0837 406.104 72.5316 401.864 83.5422L388.802 117.532C370.625 99.9068 348.948 86.0318 324.927 76.8026C281.333 60.0416 233.698 59.6145 191.115 75.5104C138.604 94.0625 96.9376 134.719 76.7917 187.073Z" fill="black"/>
</svg>
