<svg width="512" height="512" viewBox="0 0 512 512" fill="none" xmlns="http://www.w3.org/2000/svg">
<path d="M464.118 439.606L390.787 367.911L389.069 365.297C385.873 362.115 381.503 360.323 376.942 360.323C372.381 360.323 368.012 362.115 364.816 365.297C302.496 422.471 206.467 425.579 140.416 372.559C74.3651 319.54 58.7877 226.845 104.015 155.95C149.242 85.0554 241.239 57.9594 318.994 92.6322C396.749 127.305 436.135 212.988 411.03 292.855C409.222 298.625 410.7 304.9 414.906 309.316C419.113 313.731 425.41 315.617 431.425 314.263C437.44 312.909 442.259 308.521 444.067 302.751C474.078 207.971 428.752 105.974 337.411 62.7426C246.069 19.5107 136.125 48.0176 78.6999 129.822C21.2752 211.627 33.6039 322.179 107.711 389.963C181.817 457.746 295.462 462.419 375.128 400.958L440.057 464.438C446.762 470.965 457.604 470.965 464.309 464.438C471.008 457.818 471.008 447.159 464.309 440.539L464.118 439.606Z" fill="black"/>
</svg>
