<svg width="512" height="512" viewBox="0 0 512 512" fill="none" xmlns="http://www.w3.org/2000/svg">
<g clip-path="url(#clip0_77_210)">
<path d="M369.225 370.249H194.56C189.71 370.249 185.059 368.323 181.63 364.893C178.201 361.464 176.274 356.813 176.274 351.963C176.274 347.114 178.201 342.463 181.63 339.033C185.059 335.604 189.71 333.678 194.56 333.678H369.225C374.075 333.678 378.726 335.604 382.155 339.033C385.584 342.463 387.511 347.114 387.511 351.963C387.511 356.813 385.584 361.464 382.155 364.893C378.726 368.323 374.075 370.249 369.225 370.249ZM469.87 370.249H465.481C460.631 370.249 455.98 368.323 452.551 364.893C449.122 361.464 447.195 356.813 447.195 351.963C447.195 347.114 449.122 342.463 452.551 339.033C455.98 335.604 460.631 333.678 465.481 333.678H469.87C471.073 333.697 472.268 333.477 473.385 333.03C474.503 332.583 475.52 331.918 476.378 331.074C477.235 330.229 477.917 329.223 478.382 328.113C478.846 327.003 479.086 325.811 479.086 324.608V261.851C479.079 259.794 478.385 257.797 477.112 256.18C475.84 254.563 474.063 253.418 472.064 252.928H364.251C352.133 252.928 340.509 248.124 331.926 239.569C323.344 231.014 318.503 219.405 318.464 207.287V109.275C318.484 108.079 318.263 106.891 317.814 105.781C317.365 104.672 316.698 103.664 315.852 102.818C315.005 101.972 313.998 101.305 312.888 100.856C311.779 100.407 310.591 100.186 309.394 100.206H93.9154C89.0657 100.206 84.4146 98.2792 80.9854 94.8499C77.5562 91.4207 75.6296 86.7697 75.6296 81.92C75.6296 77.0703 77.5562 72.4193 80.9854 68.99C84.4146 65.5608 89.0657 63.6343 93.9154 63.6343H309.394C315.388 63.6343 321.323 64.8148 326.86 67.1085C332.398 69.4022 337.429 72.7641 341.667 77.0023C345.906 81.2404 349.267 86.2719 351.561 91.8093C353.855 97.3468 355.035 103.282 355.035 109.275V206.994C355.035 208.198 355.275 209.389 355.739 210.499C356.204 211.609 356.886 212.616 357.743 213.46C358.601 214.304 359.618 214.969 360.736 215.416C361.853 215.863 363.048 216.083 364.251 216.064H469.87C473.209 216.107 476.539 216.45 479.817 217.088L483.035 218.112C492.507 220.881 500.818 226.665 506.705 234.585C512.592 242.505 515.735 252.129 515.657 261.998V324.754C515.58 336.847 510.722 348.418 502.143 356.942C493.565 365.466 481.963 370.249 469.87 370.249Z" fill="black"/>
<path d="M476.16 253.513C472.401 253.512 468.734 252.344 465.668 250.168C462.602 247.993 460.287 244.919 459.044 241.371L429.787 160.037C429 158.939 427.97 158.038 426.777 157.404C425.585 156.769 424.262 156.419 422.912 156.379H336.457C331.607 156.379 326.956 154.453 323.527 151.024C320.098 147.594 318.171 142.943 318.171 138.094C318.171 133.244 320.098 128.593 323.527 125.164C326.956 121.735 331.607 119.808 336.457 119.808H422.912C431.018 119.84 438.966 122.058 445.918 126.228C452.869 130.399 458.566 136.368 462.409 143.506C462.86 144.356 463.251 145.236 463.579 146.139L492.836 229.083C494.436 233.663 494.166 238.688 492.085 243.07C490.003 247.451 486.279 250.836 481.719 252.489C479.916 253.062 478.048 253.407 476.16 253.513ZM417.353 448.366C404.189 448.366 391.32 444.462 380.374 437.148C369.429 429.835 360.897 419.439 355.86 407.277C350.822 395.115 349.504 381.732 352.072 368.82C354.64 355.909 360.979 344.049 370.288 334.741C379.597 325.432 391.456 319.093 404.368 316.525C417.279 313.956 430.662 315.275 442.824 320.312C454.987 325.35 465.382 333.881 472.696 344.827C480.009 355.773 483.913 368.641 483.913 381.806C483.913 399.459 476.9 416.388 464.418 428.871C451.936 441.353 435.006 448.366 417.353 448.366ZM417.353 351.817C411.393 351.672 405.525 353.306 400.498 356.512C395.471 359.717 391.514 364.348 389.131 369.814C386.749 375.279 386.05 381.33 387.123 387.195C388.196 393.059 390.993 398.471 395.156 402.739C399.32 407.006 404.661 409.936 410.497 411.153C416.333 412.371 422.4 411.821 427.922 409.575C433.445 407.328 438.172 403.486 441.501 398.54C444.83 393.594 446.608 387.768 446.61 381.806C446.612 373.977 443.554 366.458 438.087 360.855C432.62 355.252 425.179 352.008 417.353 351.817ZM146.286 448.366C133.121 448.366 120.253 444.462 109.307 437.148C98.3611 429.835 89.83 419.439 84.7922 407.277C79.7544 395.115 78.4363 381.732 81.0045 368.82C83.5728 355.909 89.912 344.049 99.2206 334.741C108.529 325.432 120.389 319.093 133.3 316.525C146.212 313.956 159.595 315.275 171.757 320.312C183.919 325.35 194.315 333.881 201.628 344.827C208.942 355.773 212.846 368.641 212.846 381.806C212.846 399.459 205.833 416.388 193.351 428.871C180.868 441.353 163.938 448.366 146.286 448.366ZM146.286 351.817C140.354 351.817 134.556 353.576 129.625 356.871C124.693 360.166 120.85 364.85 118.58 370.33C116.31 375.809 115.716 381.839 116.873 387.656C118.03 393.473 120.887 398.817 125.08 403.011C129.274 407.205 134.618 410.061 140.435 411.218C146.252 412.375 152.282 411.781 157.762 409.512C163.241 407.242 167.925 403.398 171.22 398.466C174.515 393.535 176.274 387.737 176.274 381.806C176.274 373.852 173.115 366.225 167.491 360.601C161.867 354.977 154.239 351.817 146.286 351.817Z" fill="black"/>
<path d="M336.457 370.249C334.05 370.269 331.664 369.809 329.437 368.897C327.209 367.985 325.186 366.639 323.484 364.937C321.782 363.235 320.436 361.211 319.524 358.984C318.612 356.757 318.152 354.37 318.171 351.963V192.073C318.171 187.223 320.098 182.572 323.527 179.143C326.956 175.714 331.607 173.787 336.457 173.787C341.307 173.787 345.958 175.714 349.387 179.143C352.816 182.572 354.743 187.223 354.743 192.073V351.963C354.762 354.37 354.303 356.757 353.391 358.984C352.479 361.211 351.132 363.235 349.431 364.937C347.729 366.639 345.705 367.985 343.478 368.897C341.25 369.809 338.864 370.269 336.457 370.249ZM149.065 192.658H29.2571C24.4075 192.658 19.7564 190.732 16.3272 187.303C12.898 183.873 10.9714 179.222 10.9714 174.373C10.9714 169.523 12.898 164.872 16.3272 161.443C19.7564 158.013 24.4075 156.087 29.2571 156.087H149.065C153.915 156.087 158.566 158.013 161.995 161.443C165.424 164.872 167.351 169.523 167.351 174.373C167.351 179.222 165.424 183.873 161.995 187.303C158.566 190.732 153.915 192.658 149.065 192.658ZM171.593 274.286H108.983C104.133 274.286 99.4821 272.359 96.0529 268.93C92.6237 265.501 90.6971 260.85 90.6971 256C90.6971 251.15 92.6237 246.499 96.0529 243.07C99.4821 239.641 104.133 237.714 108.983 237.714H171.593C176.443 237.714 181.094 239.641 184.523 243.07C187.952 246.499 189.879 251.15 189.879 256C189.879 260.85 187.952 265.501 184.523 268.93C181.094 272.359 176.443 274.286 171.593 274.286Z" fill="black"/>
</g>
<defs>
<clipPath id="clip0_77_210">
<rect width="512" height="512" fill="white"/>
</clipPath>
</defs>
</svg>
