<svg width="512" height="512" viewBox="0 0 512 512" fill="none" xmlns="http://www.w3.org/2000/svg">
<g clip-path="url(#clip0_77_214)">
<path d="M490.11 205.16C479.483 194.873 468.837 184.51 458.17 174.07C457.87 159.61 457.493 145.157 457.04 130.71C456.44 111.36 448.04 92.9 433.73 78.56C419.42 64.22 400.86 55.91 381.49 55.3C367.01 54.8533 352.53 54.48 338.05 54.18C327.61 43.5533 317.26 32.94 307 22.34C293.11 8.12 275.13 0.170002 256 0.180002C236.87 0.190002 218.88 8.18 205.08 22.34C194.767 32.96 184.383 43.5967 173.93 54.25C159.45 54.5433 144.973 54.9167 130.5 55.37C90.62 56.73 56.3 91 54.94 130.77C54.4933 145.23 54.1166 159.683 53.81 174.13C43.1433 184.563 32.4966 194.923 21.87 205.21C7.67996 219 -0.290039 237 -0.290039 256C-0.290039 275 7.62996 293 21.87 306.84C32.4966 317.12 43.1633 327.47 53.87 337.89C54.1566 352.35 54.53 366.813 54.99 381.28C55.6 400.66 63.99 419.07 78.29 433.43C92.59 447.79 111.14 456.08 130.54 456.68C145.02 457.14 159.5 457.517 173.98 457.81C184.42 468.43 194.79 479.037 205.09 489.63C218.92 503.85 236.92 511.8 256.09 511.79C275.26 511.78 293.21 503.85 307.09 489.64C317.39 479.027 327.763 468.4 338.21 457.76C352.69 457.46 367.167 457.083 381.64 456.63C421.51 455.28 455.83 421.01 457.19 381.23C457.643 366.783 458.017 352.337 458.31 337.89C468.977 327.45 479.627 317.087 490.26 306.8C504.45 293.02 512.42 275.04 512.42 255.97C512.42 236.9 504.32 219 490.11 205.16ZM383.3 223.57C340.12 268.44 296.25 314.31 253.11 359.81C249.604 363.525 245.378 366.485 240.689 368.51C236 370.536 230.948 371.584 225.84 371.59H225.67C220.568 371.556 215.524 370.502 210.836 368.489C206.147 366.476 201.909 363.546 198.37 359.87C175.303 336.05 152.163 312.317 128.95 288.67C125.44 285.14 122.67 280.944 120.805 276.329C118.939 271.714 118.014 266.773 118.085 261.795C118.156 256.817 119.221 251.904 121.217 247.344C123.213 242.784 126.101 238.669 129.71 235.24C136.983 228.213 146.736 224.341 156.848 224.467C166.96 224.592 176.614 228.705 183.71 235.91C197.503 250.05 211.313 264.23 225.14 278.45C259.39 242.56 293.81 206.45 327.69 170.91C342.07 155.78 366.06 155.53 381.48 170.13C396.9 184.73 397.79 208.52 383.3 223.57Z" fill="black"/>
</g>
<defs>
<clipPath id="clip0_77_214">
<rect width="512" height="512" fill="white"/>
</clipPath>
</defs>
</svg>
