<svg width="512" height="512" viewBox="0 0 512 512" fill="none" xmlns="http://www.w3.org/2000/svg">
<path d="M179.053 77.5256C206.636 46.7872 249.668 35.0856 289.006 47.6262C328.344 60.1667 356.68 94.6194 361.408 135.658L364.575 135.721C395.35 136.95 430.533 156.286 440.497 210.668L456.615 335.935C462.799 379.44 454.74 413.007 435.999 435.323C417.257 457.638 386.521 468.515 342.292 468.515H171.557C136.618 472.899 101.806 459.491 78.8214 432.799C55.8372 406.106 47.7334 369.674 57.2338 335.747L57.6997 333.567C59.9166 325.805 67.5807 320.683 75.7879 321.87C84.7412 323.165 90.9504 331.477 89.6566 340.435C83.7994 364.984 88.9321 390.868 103.713 411.319C121.873 428.543 146.404 437.382 171.369 435.698H342.292C376.214 435.698 399.64 428.572 411.822 413.757C424.004 398.943 428.877 374.19 424.004 340.435L408.074 216.481C402.452 186.477 385.022 167.725 361.408 167.725H152.253C129.763 167.725 112.334 186.477 105.399 217.794L100.901 245.36C98.8357 253.783 90.6064 259.169 82.0663 257.687C73.5261 256.205 67.5896 248.361 68.4787 239.734L73.1641 211.606C85.5334 154.411 122.079 135.658 152.253 135.658H328.048C325.474 119.04 317.269 103.812 304.809 92.5275C275.2 66.0314 229.735 68.5494 203.23 98.1533V100.029L201.392 101.727C197.499 104.813 192.375 106.01 187.447 104.878C181.699 103.557 177.091 99.268 175.359 93.6262C173.628 87.9843 175.036 81.8468 179.053 77.5256ZM321.114 220.607C323.559 221.173 325.899 222.122 328.048 223.42C329.964 224.933 331.667 226.699 333.108 228.67C333.921 229.58 334.5 230.674 334.795 231.858C335.366 232.975 335.746 234.179 335.919 235.421C336.113 236.664 336.113 237.929 335.919 239.172C335.983 241.632 335.469 244.072 334.42 246.298C333.481 248.715 331.931 250.847 329.922 252.486C326.462 256.019 321.747 258.041 316.803 258.112C314.302 258.012 311.833 257.506 309.494 256.612C305.586 254.288 302.655 250.623 301.248 246.298C300.256 244.059 299.807 241.617 299.936 239.172C299.745 237.929 299.745 236.664 299.936 235.421V231.858L301.81 228.67C302.343 227.579 303.111 226.618 304.059 225.858L306.87 223.42C307.915 222.71 309.049 222.142 310.244 221.732C311.371 221.189 312.57 220.81 313.805 220.607C316.209 220.047 318.709 220.047 321.114 220.607ZM201.356 220.794C202.597 220.968 203.801 221.349 204.917 221.92C206.068 222.294 207.146 222.865 208.103 223.607C209.225 224.255 210.238 225.078 211.101 226.045C212.049 226.806 212.817 227.766 213.35 228.858C214.078 229.856 214.706 230.924 215.224 232.046L216.349 235.609C216.451 236.857 216.451 238.111 216.349 239.359C216.349 249.716 207.958 258.112 197.607 258.112C192.795 257.944 188.231 255.93 184.863 252.486C183.09 250.719 181.688 248.615 180.74 246.298C179.844 244.03 179.398 241.61 179.428 239.172C179.235 237.929 179.235 236.664 179.428 235.421C179.602 234.179 179.982 232.975 180.553 231.858C180.927 230.706 181.498 229.628 182.239 228.67C182.773 227.579 183.541 226.618 184.488 225.858C185.309 224.972 186.256 224.214 187.3 223.607C188.256 222.865 189.334 222.294 190.486 221.92C191.602 221.349 192.805 220.968 194.047 220.794C196.451 220.234 198.951 220.234 201.356 220.794Z" fill="white"/>
</svg>
